<svg width="600" height="600" version="1.1" viewBox="0 0 158.74999 158.74999" xmlns="http://www.w3.org/2000/svg">
 <defs>
  <linearGradient id="linearGradient4520" x1="-.30238" x2="-.30238" y1="297.3" y2="161.23" gradientTransform="matrix(1.1667 0 0 1.1667 .35278 -49.853)" gradientUnits="userSpaceOnUse">
   <stop style="stop-color:#434343" offset="0"/>
   <stop style="stop-color:#4d4d4d" offset="1"/>
  </linearGradient>
 </defs>
 <g transform="translate(0,-138.25)">
  <rect x="-2.1167" y="136.13" width="162.98" height="162.98" style="fill:url(#linearGradient4520);paint-order:normal"/>
  <g transform="translate(0 11.37)">
   <circle cx="19.642" cy="217.62" r="6.9417" style="fill:none;paint-order:normal;stroke-dashoffset:9;stroke-linecap:round;stroke-linejoin:round;stroke-width:2.1167;stroke:#80c247"/>
   <circle cx="19.642" cy="217.62" r="2.1167" style="fill:#55852c;paint-order:normal"/>
  </g>
  <g transform="translate(0 11.37)">
   <circle cx="139.11" cy="217.62" r="6.9417" style="fill:none;paint-order:normal;stroke-dashoffset:9;stroke-linecap:round;stroke-linejoin:round;stroke-width:2.1167;stroke:#80c247"/>
   <circle cx="139.11" cy="217.62" r="2.1167" style="fill:#55852c;paint-order:normal"/>
  </g>
  <g transform="translate(-71.722 -11.36)">
   <circle cx="139.11" cy="217.62" r="6.9417" style="fill:none;paint-order:normal;stroke-dashoffset:9;stroke-linecap:round;stroke-linejoin:round;stroke-width:2.1167;stroke:#59a6e3"/>
   <circle cx="139.11" cy="217.62" r="2.1167" style="fill:#3676a4;paint-order:normal"/>
  </g>
  <path d="m51.594 228.99h80.698" style="fill:none;stroke-width:2.1167;stroke:#80c247"/>
  <path d="m74.083 206.51h20.428" style="fill:none;stroke-width:2.1167;stroke:#59a6e3"/>
  <g transform="translate(.31017 -11.271)">
   <circle cx="139.11" cy="217.62" r="6.9417" style="fill:none;paint-order:normal;stroke-dashoffset:9;stroke-linecap:round;stroke-linejoin:round;stroke-width:2.1167;stroke:#59a6e3"/>
   <circle cx="139.11" cy="217.62" r="2.1167" style="fill:#3676a4;paint-order:normal"/>
  </g>
  <path d="m50.271 223.7 11.906-11.906" style="fill:none;stroke-width:2.1167;stroke:#59a7e3"/>
  <g transform="translate(25.135 11.37)">
   <circle cx="19.642" cy="217.62" r="6.9417" style="fill:none;paint-order:normal;stroke-dashoffset:9;stroke-linecap:round;stroke-linejoin:round;stroke-width:2.1167;stroke:#80c247"/>
   <circle cx="19.642" cy="217.62" r="2.1167" style="fill:#55852c;paint-order:normal"/>
  </g>
  <path d="m26.458 228.99h11.906" style="fill:none;stroke-width:2.1167;stroke:#80c247"/>
  <g transform="translate(-37.953 -11.271)">
   <circle cx="139.11" cy="217.62" r="6.9417" style="fill:none;paint-order:normal;stroke-dashoffset:9;stroke-linecap:round;stroke-linejoin:round;stroke-width:2.1167;stroke:#59a6e3"/>
   <circle cx="139.11" cy="217.62" r="2.1167" style="fill:#3676a4;paint-order:normal"/>
  </g>
  <path d="m108 206.51h24.296" style="fill:none;stroke-width:2.1167;stroke:#59a6e3"/>
 </g>
</svg>
