<svg width="48" height="48" version="1.1" viewBox="0 0 12.7 12.700001" xmlns="http://www.w3.org/2000/svg" xmlns:xlink="http://www.w3.org/1999/xlink">
 <defs>
  <linearGradient id="linearGradient4523" x2="0" y1="297" y2="284.3" gradientUnits="userSpaceOnUse">
   <stop style="stop-color:#434343" offset="0"/>
   <stop style="stop-color:#4d4d4d" offset="1"/>
  </linearGradient>
 </defs>
 <g transform="translate(0 -284.3)">
  <rect y="284.3" width="12.7" height="12.7" style="fill:url(#linearGradient4523);paint-order:normal"/>
  <g transform="matrix(.8 0 0 .79999 3.7306 61.122)" style="stroke-width:1.25">
   <ellipse cx=".79376" cy="285.09" rx=".66146" ry=".66146" style="fill:none;paint-order:normal;stroke-dashoffset:9;stroke-linecap:round;stroke-linejoin:round;stroke-width:.33073;stroke:#80c247"/>
   <ellipse cx=".79376" cy="285.09" rx=".16536" ry=".16536" style="fill:#55852c;paint-order:normal"/>
  </g>
  <g transform="matrix(.8 0 0 .79999 7.6994 61.122)" style="stroke-width:1.25">
   <ellipse cx=".79376" cy="285.09" rx=".66146" ry=".66146" style="fill:none;paint-order:normal;stroke-dashoffset:9;stroke-linecap:round;stroke-linejoin:round;stroke-width:.33073;stroke:#80c247"/>
   <ellipse cx=".79376" cy="285.09" rx=".16536" ry=".16536" style="fill:#55852c;paint-order:normal"/>
  </g>
  <path d="m4.7625 289.19h3.175" style="fill:none;stroke-width:.26458px;stroke:#80c247"/>
  <g transform="matrix(.8 0 0 .79999 3.7306 64.032)" style="stroke-width:1.25">
   <ellipse cx=".79376" cy="285.09" rx=".66146" ry=".66146" style="fill:none;paint-order:normal;stroke-dashoffset:9;stroke-linecap:round;stroke-linejoin:round;stroke-width:.33073;stroke:#80c247"/>
   <ellipse cx=".79376" cy="285.09" rx=".16536" ry=".16536" style="fill:#55852c;paint-order:normal"/>
  </g>
  <g transform="matrix(.8 0 0 .79999 7.6994 64.032)" style="stroke-width:1.25">
   <ellipse cx=".79376" cy="285.09" rx=".66146" ry=".66146" style="fill:none;paint-order:normal;stroke-dashoffset:9;stroke-linecap:round;stroke-linejoin:round;stroke-width:.33073;stroke:#80c247"/>
   <ellipse cx=".79376" cy="285.09" rx=".16536" ry=".16536" style="fill:#55852c;paint-order:normal"/>
  </g>
  <path d="m4.7625 292.11h3.175" style="fill:none;stroke-width:.26458px;stroke:#80c247"/>
  <path d="m8.3344 289.59v2.1167" style="fill:none;stroke-width:.26458px;stroke:#80c247"/>
  <path d="m4.3656 289.59v2.1167" style="fill:none;stroke-width:.26458px;stroke:#80c247"/>
  <path d="m5.2917 291.31h2.1167" style="fill:none;stroke-width:.26458px;stroke:#80c247"/>
 </g>
</svg>
