<svg width="48" height="48" version="1.1" viewBox="0 0 12.7 12.700001" xmlns="http://www.w3.org/2000/svg">
 <defs>
  <linearGradient id="linearGradient4523" x2="0" y1="297" y2="284.3" gradientTransform="translate(0,-284.3)" gradientUnits="userSpaceOnUse">
   <stop style="stop-color:#434343" offset="0"/>
   <stop style="stop-color:#4d4d4d" offset="1"/>
  </linearGradient>
 </defs>
 <rect y="-1.2207e-5" width="12.7" height="12.7" style="fill:url(#linearGradient4523);paint-order:normal"/>
 <ellipse cx="6.4823" cy="6.4781" rx=".52917" ry=".52916" style="fill:none;paint-order:normal;stroke-dashoffset:9;stroke-linecap:round;stroke-linejoin:round;stroke-width:.26458;stroke:#80c247"/>
 <ellipse cx="6.4823" cy="6.4781" rx=".13229" ry=".13229" style="fill:#55852c;paint-order:normal;stroke-width:.99999"/>
 <circle cx="8.8636" cy="6.4809" r=".52917" style="fill:none;paint-order:normal;stroke-dashoffset:9;stroke-linecap:round;stroke-linejoin:round;stroke-width:.26458;stroke:#59a6e3"/>
 <circle cx="8.8636" cy="6.4809" r=".1323" style="fill:#3676a4;paint-order:normal"/>
 <circle cx="4.1011" cy="6.4809" r=".52917" style="fill:none;paint-order:normal;stroke-dashoffset:9;stroke-linecap:round;stroke-linejoin:round;stroke-width:.26458;stroke:#59a6e3"/>
 <circle cx="4.1011" cy="6.4809" r=".1323" style="fill:#3676a4;paint-order:normal"/>
 <path d="m4.4979 6.48h1.0584" style="fill:none;stroke-width:.26458px;stroke:#59a6e3"/>
 <path d="m7.4083 6.48h1.0584" style="fill:none;stroke-width:.26458px;stroke:#59a6e3"/>
 <circle transform="scale(1,-1)" cx="8.0698" cy="-4.63" r=".52917" style="fill:none;paint-order:normal;stroke-dashoffset:9;stroke-linecap:round;stroke-linejoin:round;stroke-width:.26458;stroke:#59a6e3"/>
 <circle transform="scale(1,-1)" cx="8.0698" cy="-4.63" r=".1323" style="fill:#3676a4;paint-order:normal"/>
 <path d="m7.6729 5.03-0.6616 0.65979" style="fill:none;stroke-width:.26458px;stroke:#59a6e3"/>
 <circle transform="scale(-1)" cx="-4.8947" cy="-4.64" r=".52917" style="fill:none;paint-order:normal;stroke-dashoffset:9;stroke-linecap:round;stroke-linejoin:round;stroke-width:.26458;stroke:#59a6e3"/>
 <circle transform="scale(-1)" cx="-4.8947" cy="-4.64" r=".1323" style="fill:#3676a4;paint-order:normal"/>
 <path d="m5.2917 5.03 0.66161 0.65979" style="fill:none;stroke-width:.26458px;stroke:#59a6e3"/>
 <circle transform="scale(-1,1)" cx="-4.8948" cy="8.3329" r=".52917" style="fill:none;paint-order:normal;stroke-dashoffset:9;stroke-linecap:round;stroke-linejoin:round;stroke-width:.26458;stroke:#59a6e3"/>
 <circle transform="scale(-1,1)" cx="-4.8948" cy="8.3329" r=".1323" style="fill:#3676a4;paint-order:normal"/>
 <path d="m5.2917 7.94 0.66161-0.66437" style="fill:none;stroke-width:.26458px;stroke:#59a6e3"/>
 <circle cx="8.0698" cy="8.3329" r=".52917" style="fill:none;paint-order:normal;stroke-dashoffset:9;stroke-linecap:round;stroke-linejoin:round;stroke-width:.26458;stroke:#59a6e3"/>
 <circle cx="8.0698" cy="8.3329" r=".1323" style="fill:#3676a4;paint-order:normal"/>
 <path d="m7.6729 7.94-0.6616-0.66437" style="fill:none;stroke-width:.26458px;stroke:#59a6e3"/>
</svg>
