<svg width="48" height="48" version="1.1" viewBox="0 0 12.7 12.700001" xmlns="http://www.w3.org/2000/svg">
 <defs>
  <linearGradient id="linearGradient4523" x2="0" y1="297" y2="284.3" gradientUnits="userSpaceOnUse">
   <stop style="stop-color:#434343" offset="0"/>
   <stop style="stop-color:#4d4d4d" offset="1"/>
  </linearGradient>
 </defs>
 <g transform="translate(0 -284.3)">
  <rect y="284.3" width="12.7" height="12.7" style="fill:url(#linearGradient4523);paint-order:normal"/>
  <path d="m4.101 290.39v-0.39688l0.52917-0.52917h1.4552" style="fill:none;stroke-linejoin:round;stroke-width:.26458;stroke:#80c247"/>
  <path d="m8.8635 290.39v-0.39688l-0.52917-0.52917h-1.4552" style="fill:none;stroke-linejoin:round;stroke-width:.26458;stroke:#80c247"/>
  <g transform="translate(3.4396 6.3515)">
   <circle cx=".66146" cy="284.96" r=".52917" style="fill:none;paint-order:normal;stroke-dashoffset:9;stroke-linecap:round;stroke-linejoin:round;stroke-width:.26458;stroke:#59a6e3"/>
   <circle cx=".66146" cy="284.96" r=".1323" style="fill:#3676a4;paint-order:normal"/>
  </g>
  <g transform="matrix(.8 0 0 .79999 5.8473 61.386)" style="stroke-width:1.25">
   <ellipse cx=".79376" cy="285.09" rx=".66146" ry=".66146" style="fill:none;paint-order:normal;stroke-dashoffset:9;stroke-linecap:round;stroke-linejoin:round;stroke-width:.33073;stroke:#80c247"/>
   <ellipse cx=".79376" cy="285.09" rx=".16536" ry=".16536" style="fill:#55852c;paint-order:normal"/>
  </g>
  <path d="m6.4823 289.86v1.5838" style="fill:none;stroke-width:.26458px;stroke:#80c247"/>
  <g transform="translate(8.2021 6.3515)">
   <circle cx=".66146" cy="284.96" r=".52917" style="fill:none;paint-order:normal;stroke-dashoffset:9;stroke-linecap:round;stroke-linejoin:round;stroke-width:.26458;stroke:#59a6e3"/>
   <circle cx=".66146" cy="284.96" r=".1323" style="fill:#3676a4;paint-order:normal"/>
  </g>
  <g transform="translate(5.8208 7.4084)">
   <ellipse cx=".66146" cy="284.96" rx=".52917" ry=".52917" style="fill:none;paint-order:normal;stroke-dashoffset:9;stroke-linecap:round;stroke-linejoin:round;stroke-width:.26458;stroke:#59a6e3"/>
   <ellipse cx=".66146" cy="284.96" rx=".1323" ry=".1323" style="fill:#3676a4;paint-order:normal"/>
  </g>
 </g>
</svg>
