<svg width="48" height="48" version="1.1" viewBox="0 0 12.7 12.700001" xmlns="http://www.w3.org/2000/svg">
 <defs>
  <linearGradient id="linearGradient4523" x2="0" y1="297" y2="284.3" gradientUnits="userSpaceOnUse">
   <stop style="stop-color:#434343" offset="0"/>
   <stop style="stop-color:#4d4d4d" offset="1"/>
  </linearGradient>
 </defs>
 <g transform="translate(0 -284.3)">
  <rect y="284.3" width="12.7" height="12.7" style="fill:url(#linearGradient4523);paint-order:normal"/>
  <g transform="matrix(.8 0 0 .79999 1.614 62.709)" style="stroke-width:1.25">
   <ellipse cx=".79376" cy="285.09" rx=".66146" ry=".66146" style="fill:none;paint-order:normal;stroke-dashoffset:9;stroke-linecap:round;stroke-linejoin:round;stroke-width:.33073;stroke:#80c247"/>
   <ellipse cx=".79376" cy="285.09" rx=".16536" ry=".16536" style="fill:#55852c;paint-order:normal"/>
  </g>
  <path d="m2.6458 290.78h1.3229" style="fill:none;stroke-width:.26458px;stroke:#80c247"/>
  <path d="m5.0271 290.12 1.0583-1.0537" style="fill:none;stroke-width:.26458px;stroke:#59a6e3"/>
  <g transform="matrix(.8 0 0 .79999 3.7306 62.709)" style="stroke-width:1.25">
   <ellipse cx=".79376" cy="285.09" rx=".66146" ry=".66146" style="fill:none;paint-order:normal;stroke-dashoffset:9;stroke-linecap:round;stroke-linejoin:round;stroke-width:.33073;stroke:#80c247"/>
   <ellipse cx=".79376" cy="285.09" rx=".16536" ry=".16536" style="fill:#55852c;paint-order:normal"/>
  </g>
  <g transform="translate(5.8208 3.7042)">
   <ellipse cx=".66146" cy="284.96" rx=".52917" ry=".52917" style="fill:none;paint-order:normal;stroke-dashoffset:9;stroke-linecap:round;stroke-linejoin:round;stroke-width:.26458;stroke:#59a6e3"/>
   <ellipse cx=".66146" cy="284.96" rx=".1323" ry=".1323" style="fill:#3676a4;paint-order:normal"/>
  </g>
  <path d="m4.7625 291.18 1.7198 1.7198h3.8365" style="fill:none;stroke-width:.26458px;stroke:#80c247"/>
  <g transform="translate(7.9375 3.7042)">
   <ellipse cx=".66146" cy="284.96" rx=".52917" ry=".52917" style="fill:none;paint-order:normal;stroke-dashoffset:9;stroke-linecap:round;stroke-linejoin:round;stroke-width:.26458;stroke:#59a6e3"/>
   <ellipse cx=".66146" cy="284.96" rx=".1323" ry=".1323" style="fill:#3676a4;paint-order:normal"/>
  </g>
  <g transform="translate(10.054 3.7042)">
   <ellipse cx=".66146" cy="284.96" rx=".52917" ry=".52917" style="fill:none;paint-order:normal;stroke-dashoffset:9;stroke-linecap:round;stroke-linejoin:round;stroke-width:.26458;stroke:#59a6e3"/>
   <ellipse cx=".66146" cy="284.96" rx=".1323" ry=".1323" style="fill:#3676a4;paint-order:normal"/>
  </g>
  <path d="m6.8792 288.67h1.3229" style="fill:none;stroke-width:.26458px;stroke:#59a6e3"/>
  <path d="m8.9958 288.67h1.3229" style="fill:none;stroke-width:.26458px;stroke:#59a6e3"/>
  <g transform="matrix(.8 0 0 .79999 10.081 64.826)" style="stroke-width:1.25">
   <ellipse cx=".79376" cy="285.09" rx=".66146" ry=".66146" style="fill:none;paint-order:normal;stroke-dashoffset:9;stroke-linecap:round;stroke-linejoin:round;stroke-width:.33073;stroke:#80c247"/>
   <ellipse cx=".79376" cy="285.09" rx=".16536" ry=".16536" style="fill:#55852c;paint-order:normal"/>
  </g>
 </g>
</svg>
