<svg width="48" height="48" version="1.1" viewBox="0 0 48 48" xmlns="http://www.w3.org/2000/svg">
 <circle cx="13.5" cy="31.5" r="2" style="fill:none;stroke:#80c247"/>
 <circle cx="13.5" cy="31.5" r=".5" style="fill:#55852c"/>
 <circle cx="34.5" cy="16.5" r="2" style="fill:none;stroke:#80c247"/>
 <circle cx="34.5" cy="16.5" r=".5" style="fill:#55852c"/>
 <path d="m31 16.5h-17.5v13.5" style="fill:none;stroke-linejoin:round;stroke:#80c247"/>
 <path d="m17 31.5h17.5v-13.5" style="fill:none;stroke-linejoin:round;stroke:#80c247"/>
 <path d="m19 19.5h-2" style="fill:none;stroke:#59a6e3"/>
 <path d="m22 19.5h-2" style="fill:none;stroke:#59a6e3"/>
 <path d="m26 19.5h-3" style="fill:none;stroke:#59a6e3"/>
 <path d="m29 19.5h-2" style="fill:none;stroke:#59a6e3"/>
 <path d="m31 19.5h-1" style="fill:none;stroke:#59a6e3"/>
 <path d="m18 22.5h-2" style="fill:none;stroke:#59a6e3"/>
 <path d="m21 22.5h-2" style="fill:none;stroke:#59a6e3"/>
 <path d="m23 22.5h-1" style="fill:none;stroke:#59a6e3"/>
 <path d="m27 22.5h-3" style="fill:none;stroke:#59a6e3"/>
 <path d="m29 22.5h-1" style="fill:none;stroke:#59a6e3"/>
 <path d="m32 22.5h-2" style="fill:none;stroke:#59a6e3"/>
 <path d="m30 25.5h-1" style="fill:none;stroke:#59a6e3"/>
 <path d="m32 25.5h-1" style="fill:none;stroke:#59a6e3"/>
 <path d="m28 25.5h-1" style="fill:none;stroke:#59a6e3"/>
 <path d="m26 25.5h-2" style="fill:none;stroke:#59a6e3"/>
 <path d="m23 25.5h-3" style="fill:none;stroke:#59a6e3"/>
 <path d="m19 25.5h-3" style="fill:none;stroke:#59a6e3"/>
 <path d="m18 28.5h-1" style="fill:none;stroke:#59a6e3"/>
 <path d="m22 28.5h-3" style="fill:none;stroke:#59a6e3"/>
 <path d="m24 28.5h-1" style="fill:none;stroke:#59a6e3"/>
 <path d="m27 28.5h-2" style="fill:none;stroke:#59a6e3"/>
 <path d="m31 28.5h-3" style="fill:none;stroke:#59a6e3"/>
</svg>
