<svg width="48" height="48" version="1.1" viewBox="0 0 12.7 12.7" xmlns="http://www.w3.org/2000/svg">
 <defs>
  <linearGradient id="linearGradient4523" x2="0" y1="297" y2="284.3" gradientTransform="translate(0,-284.3)" gradientUnits="userSpaceOnUse">
   <stop style="stop-color:#434343" offset="0"/>
   <stop style="stop-color:#4d4d4d" offset="1"/>
  </linearGradient>
 </defs>
 <rect y="-1.2207e-5" width="12.7" height="12.7" style="fill:url(#linearGradient4523);paint-order:normal"/>
 <g transform="matrix(.8 0 0 .79999 8.4931 -223.71)" style="stroke-width:1.25">
  <circle cx=".79376" cy="285.09" r=".66146" style="fill:none;paint-order:normal;stroke-dashoffset:9;stroke-linecap:round;stroke-linejoin:round;stroke-width:.33073;stroke:#80c247"/>
  <circle cx=".79376" cy="285.09" r=".16536" style="fill:#55852c;paint-order:normal"/>
 </g>
 <g transform="matrix(.8 0 0 .79999 2.9369 -219.74)" style="stroke-width:1.25">
  <circle cx=".79376" cy="285.09" r=".66146" style="fill:none;paint-order:normal;stroke-dashoffset:9;stroke-linecap:round;stroke-linejoin:round;stroke-width:.33073;stroke:#80c247"/>
  <circle cx=".79376" cy="285.09" r=".16536" style="fill:#55852c;paint-order:normal"/>
 </g>
 <path d="m8.2021 4.37h-4.6302v3.5675" style="fill:none;stroke-linejoin:round;stroke-width:.26458;stroke:#80c247"/>
 <path d="m4.4979 5.16h0.52917" style="fill:none;stroke-width:.26458px;stroke:#59a6e3"/>
 <path d="m5.2917 5.16h0.52917" style="fill:none;stroke-width:.26458px;stroke:#59a6e3"/>
 <path d="m6.0854 5.16h0.79375" style="fill:none;stroke-width:.26458px;stroke:#59a6e3"/>
 <path d="m7.9375 5.16h0.26458" style="fill:none;stroke-width:.26458px;stroke:#59a6e3"/>
 <path d="m4.2333 5.95h0.52917" style="fill:none;stroke-width:.26458px;stroke:#59a6e3"/>
 <path d="m5.0271 5.95h0.52917" style="fill:none;stroke-width:.26458px;stroke:#59a6e3"/>
 <path d="m5.8208 5.95h0.26458" style="fill:none;stroke-width:.26458px;stroke:#59a6e3"/>
 <path d="m6.35 5.95h0.79375" style="fill:none;stroke-width:.26458px;stroke:#59a6e3"/>
 <path d="m7.4083 5.95h0.26458" style="fill:none;stroke-width:.26458px;stroke:#59a6e3"/>
 <path d="m7.9375 5.95h0.52917" style="fill:none;stroke-width:.26458px;stroke:#59a6e3"/>
 <path d="m7.1438 5.16h0.52917" style="fill:none;stroke-width:.26458px;stroke:#59a6e3"/>
 <path d="m4.2333 6.75h0.79375" style="fill:none;stroke-width:.26458px;stroke:#59a6e3"/>
 <path d="m5.2917 6.75h0.79375" style="fill:none;stroke-width:.26458px;stroke:#59a6e3"/>
 <path d="m6.35 6.75h0.52917" style="fill:none;stroke-width:.26458px;stroke:#59a6e3"/>
 <path d="m7.1438 6.75h0.26458" style="fill:none;stroke-width:.26458px;stroke:#59a6e3"/>
 <path d="m7.6729 6.75h0.26458" style="fill:none;stroke-width:.26458px;stroke:#59a6e3"/>
 <path d="m8.2021 6.75h0.26458" style="fill:none;stroke-width:.26458px;stroke:#59a6e3"/>
 <path d="m5.0271 7.54h0.79375" style="fill:none;stroke-width:.26458px;stroke:#59a6e3"/>
 <path d="m4.4979 7.54h0.26458" style="fill:none;stroke-width:.26458px;stroke:#59a6e3"/>
 <path d="m6.0854 7.54h0.26458" style="fill:none;stroke-width:.26458px;stroke:#59a6e3"/>
 <path d="m7.4083 7.54h0.79368" style="fill:none;stroke-width:.32403px;stroke:#59a6e3"/>
 <path d="m6.6146 7.54h0.52913" style="fill:none;stroke-width:.26458px;stroke:#59a6e3"/>
 <path d="m4.4979 8.33h4.6303v-3.5675" style="fill:none;stroke-linejoin:round;stroke-width:.26458;stroke:#80c247"/>
</svg>
