<svg width="48" height="48" version="1.1" viewBox="0 0 48 48" xmlns="http://www.w3.org/2000/svg" xmlns:xlink="http://www.w3.org/1999/xlink">
 <use transform="translate(13.5,31.5)" xlink:href="_defs.svg#g"/>
 <path d="m17 31.5h17.5v-13.5m-3.5-1.5h-17.5v13.5" style="fill:none;stroke-linejoin:round;stroke:#80c247"/>
 <path d="m31 28.5h-3m-1 0h-2m-1 0h-1m-1 0h-3m-1 0h-1m2-3h-3m7 0h-3m6 0h-2m4 0h-1m5 0h-1m-1 0h-1m3-3h-2m-1 0h-1m-1 0h-3m-1 0h-1m-1 0h-2m-1 0h-2m15-3h-1m-1 0h-2m-1 0h-3m-1 0h-2m-1 0h-2" style="fill:none;stroke:#59a6e3"/>
 <use transform="translate(34.5,16.5)" xlink:href="_defs.svg#g"/>
</svg>
