<svg width="48" height="48" version="1.1" viewBox="0 0 48 48" xmlns="http://www.w3.org/2000/svg">
 <circle cx="16.5" cy="13.5" r="2" style="fill:none;stroke:#80c247"/>
 <circle cx="16.5" cy="13.5" r=".5" style="fill:#55852c"/>
 <circle cx="31.5" cy="34.5" r="2" style="fill:none;stroke:#80c247"/>
 <circle cx="31.5" cy="34.5" r=".5" style="fill:#55852c"/>
 <path d="m31.5 31v-17.5h-13.5" style="fill:none;stroke-linejoin:round;stroke:#80c247"/>
 <path d="m16.5 17v17.5h13.5" style="fill:none;stroke-linejoin:round;stroke:#80c247"/>
 <path d="m22 16.5h-2" style="fill:none;stroke:#59a6e3"/>
 <path d="m25 16.5h-2" style="fill:none;stroke:#59a6e3"/>
 <path d="m28 16.5h-2" style="fill:none;stroke:#59a6e3"/>
 <path d="m21 19.5h-2" style="fill:none;stroke:#59a6e3"/>
 <path d="m24 19.5h-2" style="fill:none;stroke:#59a6e3"/>
 <path d="m26 19.5h-1" style="fill:none;stroke:#59a6e3"/>
 <path d="m22 28.5h-3" style="fill:none;stroke:#59a6e3"/>
 <path d="m29 28.5h-2" style="fill:none;stroke:#59a6e3"/>
 <path d="m29 22.5h-2" style="fill:none;stroke:#59a6e3"/>
 <path d="m26 22.5h-3" style="fill:none;stroke:#59a6e3"/>
 <path d="m22 22.5h-3" style="fill:none;stroke:#59a6e3"/>
 <path d="m20 25.5h-1" style="fill:none;stroke:#59a6e3"/>
 <path d="m24 25.5h-3" style="fill:none;stroke:#59a6e3"/>
 <path d="m26 25.5h-1" style="fill:none;stroke:#59a6e3"/>
 <path d="m29 25.5h-2" style="fill:none;stroke:#59a6e3"/>
 <path d="m29 19.5h-2" style="fill:none;stroke:#59a6e3"/>
 <path d="m23 31.5h-1" style="fill:none;stroke:#59a6e3"/>
 <path d="m25 31.5h-1" style="fill:none;stroke:#59a6e3"/>
 <path d="m21 31.5h-1" style="fill:none;stroke:#59a6e3"/>
 <path d="m28 31.5h-2" style="fill:none;stroke:#59a6e3"/>
 <path d="m24 28.5h-1" style="fill:none;stroke:#59a6e3"/>
 <path d="m26 28.5h-1" style="fill:none;stroke:#59a6e3"/>
</svg>
