<svg width="48" height="48" version="1.1" viewBox="0 0 48 48" xmlns="http://www.w3.org/2000/svg">
 <circle cx="16.5" cy="13.5" r="2" style="fill:none;stroke:#80c247"/>
 <circle cx="16.5" cy="13.5" r=".5" style="fill:#55852c"/>
 <circle cx="31.5" cy="34.5" r="2" style="fill:none;stroke:#80c247"/>
 <circle cx="31.5" cy="34.5" r=".5" style="fill:#55852c"/>
 <path d="m16.5 17v17.5h13.5m1.5-3.5v-17.5h-13.5" style="fill:none;stroke-linejoin:round;stroke:#80c247"/>
 <path d="m26 28.5h-1m-1 0h-1m5 3h-2m-5 0h-1m5 0h-1m-1 0h-1m7-12h-2m2 6h-2m-1 0h-1m-1 0h-3m-1 0h-1m3-3h-3m7 0h-3m6 0h-2m2 6h-2m-5 0h-3m7-9h-1m-1 0h-2m-1 0h-2m9-3h-2m-1 0h-2m-1 0h-2" style="fill:none;stroke:#59a6e3"/>
</svg>
